<svg width="170" height="168" viewBox="0 0 170 168" fill="none" xmlns="http://www.w3.org/2000/svg">
<path d="M92.2751 53.5482L92.452 54.766L93.1746 53.7699L122.885 12.8153L106.058 60.5317L105.649 61.6922L106.752 61.1461L152.092 38.6899L115.017 73.1206L114.115 73.958L115.346 73.9869L165.928 75.1735L117.099 88.4309L115.912 88.7534L116.988 89.3506L161.225 113.908L111.828 102.955L110.627 102.689L111.302 103.718L139.059 146.021L100.411 113.366L99.471 112.572L99.5906 113.797L104.51 164.154L85.4632 117.279L85 116.139L84.5368 117.279L65.4904 164.154L70.4094 113.797L70.529 112.572L69.5891 113.366L30.9405 146.021L58.6981 103.718L59.3732 102.689L58.1719 102.955L8.77504 113.908L53.0123 89.3506L54.0882 88.7534L52.9006 88.4309L4.07177 75.1735L54.6544 73.9869L55.8847 73.958L54.983 73.1206L17.9082 38.6899L63.2484 61.1461L64.3511 61.6922L63.9419 60.5317L47.1146 12.8153L76.8254 53.7699L77.548 54.766L77.7249 53.5482L85 3.47739L92.2751 53.5482Z" stroke="#E7E7E5"/>
</svg>
